<svg xmlns="http://www.w3.org/2000/svg" viewBox="0 0 860 601.8"><g fill-opacity=".1"><path fill="#E5ECF2" d="M222.7 296.7c0 .9-.8 1.7-1.9 1.7s-1.9-.7-1.9-1.7.8-1.7 1.9-1.7 1.9.7 1.9 1.7m-40.9 1.2c0 .9-.8 1.7-1.9 1.7s-1.9-.7-1.9-1.7.8-1.7 1.9-1.7 1.9.8 1.9 1.7m119.7-29.6c0 .9-.8 1.7-1.9 1.7-1 0-1.9-.7-1.9-1.7s.8-1.7 1.9-1.7c1.1.1 1.9.8 1.9 1.7m176.1 9.1c0 .9-.8 1.7-1.9 1.7-1 0-1.9-.7-1.9-1.7s.8-1.7 1.9-1.7c1.1 0 1.9.8 1.9 1.7m-97-7.5c0 .9-.8 1.7-1.9 1.7s-1.9-.7-1.9-1.7.8-1.7 1.9-1.7 1.9.8 1.9 1.7m64.7 55.9c0 .9-.8 1.7-1.9 1.7s-1.9-.7-1.9-1.7.8-1.7 1.9-1.7 1.9.8 1.9 1.7m-62.8 26.1c0 .9-.8 1.7-1.9 1.7s-1.9-.7-1.9-1.7.8-1.7 1.9-1.7 1.9.8 1.9 1.7m86.9 40.4c0 .9-.8 1.7-1.9 1.7s-1.9-.7-1.9-1.7.8-1.7 1.9-1.7 1.9.8 1.9 1.7m179.1-46.2c0 .9-.8 1.7-1.9 1.7-1 0-1.9-.7-1.9-1.7s.8-1.7 1.9-1.7c1.1 0 1.9.7 1.9 1.7m-48.4-28.9c0 1.1-1 2-2.2 2s-2.2-.9-2.2-2 1-2 2.2-2 2.2.9 2.2 2m-76 84.5c0 1.1-1 2-2.2 2-1.2 0-2.2-.9-2.2-2s1-2 2.2-2 2.2.9 2.2 2m219.3 79.2c0 1.1-1 2-2.2 2s-2.2-.9-2.2-2 1-2 2.2-2 2.2.9 2.2 2m22.3 82.5c0 1.1-1 2-2.2 2s-2.2-.9-2.2-2 1-2 2.2-2 2.2.9 2.2 2m49.9-90.5c0 1.1-1 2-2.2 2s-2.2-.9-2.2-2 1-2 2.2-2 2.2.9 2.2 2M193.9 361.7c0 1.1-1 2-2.2 2s-2.2-.9-2.2-2 1-2 2.2-2 2.2.9 2.2 2m69.5 62.9c0 1.1-1 2-2.2 2-1.2 0-2.2-.9-2.2-2s1-2 2.2-2 2.2.9 2.2 2m67.8-194.9c0 1.1-1 2-2.2 2s-2.2-.9-2.2-2 1-2 2.2-2 2.2.9 2.2 2M228.6 599.8c0 1.1-1 2-2.2 2s-2.2-.9-2.2-2 1-2 2.2-2 2.2.9 2.2 2m-126.5-10.5c0 1.1-1 2-2.2 2s-2.2-.9-2.2-2 1-2 2.2-2 2.2.9 2.2 2M63 598.8c0 1.1-1 2-2.2 2s-2.2-.9-2.2-2 1-2 2.2-2 2.2.9 2.2 2m-41.8-11.5c0 1.1-1 2-2.2 2-1.2 0-2.2-.9-2.2-2s1-2 2.2-2 2.2.9 2.2 2M4.5 445.1c0 1.1-1 2-2.2 2s-2.2-.9-2.2-2 1-2 2.2-2 2.2.9 2.2 2m799.2-79c0 1.1-1 2-2.2 2s-2.2-.9-2.2-2 1-2 2.2-2 2.2.9 2.2 2m18.4 11.3c0 1.1-1 2-2.2 2s-2.2-.9-2.2-2 1-2 2.2-2 2.2.9 2.2 2m-39.6-13.3c0 1.1-1 2-2.2 2s-2.2-.9-2.2-2 1-2 2.2-2 2.2.9 2.2 2m-36.8-25c0 1.1-1 2-2.2 2s-2.2-.9-2.2-2 1-2 2.2-2 2.2.9 2.2 2m-177 58.9c0 1.5-1.3 2.7-3 2.7-1.6 0-3-1.2-3-2.7 0-1.5 1.3-2.7 3-2.7 1.7.1 3 1.3 3 2.7m152.6-136.1c0 1.5-1.3 2.7-3 2.7-1.6 0-3-1.2-3-2.7 0-1.5 1.3-2.7 3-2.7s3 1.2 3 2.7M269.5 18.1c0 2.3-2.1 4.2-4.6 4.2-2.6 0-4.6-1.9-4.6-4.2s2.1-4.2 4.6-4.2c2.5.1 4.6 1.9 4.6 4.2m288.9 56.1c0 2.3-2.1 4.2-4.6 4.2-2.6 0-4.7-1.9-4.7-4.2s2.1-4.2 4.7-4.2c2.5.1 4.6 1.9 4.6 4.2m186.5 193c0 1.5-1.3 2.7-3 2.7-1.6 0-3-1.2-3-2.7 0-1.5 1.3-2.7 3-2.7s3 1.2 3 2.7m8.8 36.8c0 1.5-1.3 2.7-3 2.7-1.6 0-3-1.2-3-2.7 0-1.5 1.3-2.7 3-2.7 1.6.1 3 1.3 3 2.7m29.5 27.2c0 1.5-1.3 2.7-3 2.7-1.6 0-3-1.2-3-2.7 0-1.5 1.3-2.7 3-2.7s3 1.2 3 2.7M611.8 433.4c0 1.5-1.3 2.7-3 2.7-1.6 0-3-1.2-3-2.7 0-1.5 1.3-2.7 3-2.7s3 1.2 3 2.7m166.2 37c0 1.5-1.3 2.7-3 2.7-1.6 0-3-1.2-3-2.7 0-1.5 1.3-2.7 3-2.7s3 1.2 3 2.7m-448.6-75.7c0 1.3-1.2 2.3-2.6 2.3-1.4 0-2.6-1-2.6-2.3s1.2-2.3 2.6-2.3c1.4-.1 2.6 1 2.6 2.3m-22.7 133.6c0 1.3-1.2 2.3-2.6 2.3-1.4 0-2.6-1-2.6-2.3 0-1.3 1.2-2.3 2.6-2.3 1.4 0 2.6 1 2.6 2.3m-100 37c0 1.3-1.2 2.3-2.6 2.3-1.4 0-2.6-1-2.6-2.3 0-1.3 1.2-2.3 2.6-2.3 1.4 0 2.6 1 2.6 2.3m-80-29.2c0 1.3-1.2 2.3-2.6 2.3-1.4 0-2.6-1-2.6-2.3 0-1.3 1.2-2.3 2.6-2.3 1.4 0 2.6 1 2.6 2.3m-95.1 24.6c0 1.3-1.2 2.3-2.6 2.3-1.4 0-2.6-1-2.6-2.3 0-1.3 1.2-2.3 2.6-2.3 1.4-.1 2.6 1 2.6 2.3M839.2 169c0 2-1.8 3.7-4.1 3.7S831 171 831 169s1.8-3.7 4.1-3.7 4.1 1.7 4.1 3.7M580.6 349.7c0 2-1.8 3.7-4.1 3.7s-4.1-1.6-4.1-3.7c0-2 1.8-3.7 4.1-3.7s4.1 1.7 4.1 3.7m-446.9 16.4c0 2-1.8 3.7-4.1 3.7s-4.1-1.6-4.1-3.7c0-2 1.8-3.7 4.1-3.7s4.1 1.7 4.1 3.7m237.7 67.5c0 .7-.6 1.3-1.4 1.3s-1.4-.6-1.4-1.3.6-1.3 1.4-1.3c.8 0 1.4.6 1.4 1.3m136.4-6.2c0 .7-.6 1.3-1.4 1.3s-1.4-.6-1.4-1.3.6-1.3 1.4-1.3c.8 0 1.4.6 1.4 1.3m-219.5-94.8c0 .7-.6 1.3-1.4 1.3s-1.4-.6-1.4-1.3.6-1.3 1.4-1.3c.8 0 1.4.6 1.4 1.3m146.8 151.5c0 .7-.6 1.3-1.4 1.3s-1.4-.6-1.4-1.3.6-1.3 1.4-1.3c.7.1 1.4.6 1.4 1.3m-106.9-19c0 .7-.6 1.3-1.4 1.3s-1.4-.6-1.4-1.3.6-1.3 1.4-1.3c.7 0 1.4.6 1.4 1.3"/><path fill="#211249" d="M201.5 471.8c0 .7-.6 1.3-1.4 1.3-.8 0-1.4-.6-1.4-1.3s.6-1.3 1.4-1.3c.8.1 1.4.6 1.4 1.3"/><path fill="#E5ECF2" d="M191.3 497.3c0 .7-.6 1.3-1.4 1.3-.8 0-1.4-.6-1.4-1.3s.6-1.3 1.4-1.3c.7.1 1.4.6 1.4 1.3m85.8 86.5c0 .7-.6 1.3-1.4 1.3s-1.4-.6-1.4-1.3.6-1.3 1.4-1.3c.8.1 1.4.6 1.4 1.3m-235.8-81c0 .7-.6 1.3-1.4 1.3-.8 0-1.4-.6-1.4-1.3s.6-1.3 1.4-1.3c.7.1 1.4.6 1.4 1.3M4.5 527.2c0 .7-.6 1.3-1.4 1.3s-1.4-.6-1.4-1.3.6-1.3 1.4-1.3c.7.1 1.4.7 1.4 1.3m9.4-68.3c0 .7-.6 1.3-1.4 1.3s-1.4-.6-1.4-1.3.6-1.3 1.4-1.3c.8.1 1.4.6 1.4 1.3m86.5-39.3c0 .7-.6 1.3-1.4 1.3-.8 0-1.4-.6-1.4-1.3s.6-1.3 1.4-1.3c.8 0 1.4.6 1.4 1.3m-34.6-44.8c0 .7-.6 1.3-1.4 1.3-.8 0-1.4-.6-1.4-1.3s.6-1.3 1.4-1.3c.8.1 1.4.6 1.4 1.3M422 592.6c0 .7-.6 1.3-1.4 1.3s-1.4-.6-1.4-1.3.6-1.3 1.4-1.3c.7 0 1.4.6 1.4 1.3m105.7-30.5c0 .7-.6 1.3-1.4 1.3s-1.4-.6-1.4-1.3.6-1.3 1.4-1.3c.8.1 1.4.6 1.4 1.3M152 417.1c0 .7-.6 1.3-1.4 1.3-.8 0-1.4-.6-1.4-1.3s.6-1.3 1.4-1.3c.7 0 1.4.6 1.4 1.3m-84.8 17.7c0 .7-.6 1.3-1.4 1.3-.8 0-1.4-.6-1.4-1.3s.6-1.3 1.4-1.3c.8.1 1.4.6 1.4 1.3m5.6-79c0 .7-.6 1.3-1.4 1.3-.8 0-1.4-.6-1.4-1.3s.6-1.3 1.4-1.3c.7.1 1.4.6 1.4 1.3m-31.2-31.1c0 .7-.6 1.3-1.4 1.3-.8 0-1.4-.6-1.4-1.3s.6-1.3 1.4-1.3c.7 0 1.4.6 1.4 1.3m8.9-28c0 .7-.6 1.3-1.4 1.3-.8 0-1.4-.6-1.4-1.3s.6-1.3 1.4-1.3c.7 0 1.4.6 1.4 1.3m0-10.9c0 .7-.6 1.3-1.4 1.3-.8 0-1.4-.6-1.4-1.3s.6-1.3 1.4-1.3c.7.1 1.4.6 1.4 1.3m-26.7-40.5c0 .7-.6 1.3-1.4 1.3-.8 0-1.4-.6-1.4-1.3s.6-1.3 1.4-1.3c.8.1 1.4.6 1.4 1.3m22.2 0c0 .7-.6 1.3-1.4 1.3s-1.4-.6-1.4-1.3.6-1.3 1.4-1.3c.8.1 1.4.6 1.4 1.3M74.3 231c0 .7-.6 1.3-1.4 1.3-.8 0-1.4-.6-1.4-1.3s.6-1.3 1.4-1.3c.8 0 1.4.6 1.4 1.3m-57.6-8.7c0 .7-.6 1.3-1.4 1.3s-1.4-.6-1.4-1.3.6-1.3 1.4-1.3c.8.1 1.4.6 1.4 1.3m129-107.7c0 .7-.6 1.3-1.4 1.3-.8 0-1.4-.6-1.4-1.3s.6-1.3 1.4-1.3c.8 0 1.4.6 1.4 1.3m0-11.6c0 .7-.6 1.3-1.4 1.3-.8 0-1.4-.6-1.4-1.3s.6-1.3 1.4-1.3c.8 0 1.4.6 1.4 1.3m-2.8-30c0 .7-.6 1.3-1.4 1.3-.8 0-1.4-.6-1.4-1.3s.6-1.3 1.4-1.3c.8 0 1.4.6 1.4 1.3M178 59.9c0 .7-.6 1.3-1.4 1.3-.8 0-1.4-.6-1.4-1.3s.6-1.3 1.4-1.3c.7.1 1.4.6 1.4 1.3m2.8-17.2c0 .7-.6 1.3-1.4 1.3-.8 0-1.4-.6-1.4-1.3s.6-1.3 1.4-1.3c.7 0 1.4.6 1.4 1.3M190 30c0 .7-.6 1.3-1.4 1.3-.8 0-1.4-.6-1.4-1.3s.6-1.3 1.4-1.3c.7 0 1.4.6 1.4 1.3m17.7-17.3c0 .7-.6 1.3-1.4 1.3-.8 0-1.4-.6-1.4-1.3s.6-1.3 1.4-1.3c.8.1 1.4.6 1.4 1.3M162 8c0 .7-.6 1.3-1.4 1.3-.8 0-1.4-.6-1.4-1.3s.6-1.3 1.4-1.3c.8 0 1.4.6 1.4 1.3m14.6 19.5c0 .7-.6 1.3-1.4 1.3-.8 0-1.4-.6-1.4-1.3s.6-1.3 1.4-1.3c.8 0 1.4.6 1.4 1.3m118.9 33.7c0 .7-.6 1.3-1.4 1.3s-1.4-.6-1.4-1.3.6-1.3 1.4-1.3c.8 0 1.4.6 1.4 1.3m83.2-46c0 .7-.6 1.3-1.4 1.3s-1.4-.6-1.4-1.3.6-1.3 1.4-1.3c.8.1 1.4.6 1.4 1.3M23 32.5c0 .7-.6 1.3-1.4 1.3-.8 0-1.4-.6-1.4-1.3s.6-1.3 1.4-1.3c.7 0 1.4.6 1.4 1.3M124.1 129c0 .7-.6 1.3-1.4 1.3-.8 0-1.4-.6-1.4-1.3s.6-1.3 1.4-1.3c.7 0 1.4.6 1.4 1.3m382.1 50.8c0 .7-.6 1.3-1.4 1.3s-1.4-.6-1.4-1.3.6-1.3 1.4-1.3c.7 0 1.4.6 1.4 1.3m-138.8-49.6c0 .7-.6 1.3-1.4 1.3s-1.4-.6-1.4-1.3.6-1.3 1.4-1.3c.8.1 1.4.7 1.4 1.3m198.1-31.6c0 .7-.6 1.3-1.4 1.3s-1.4-.6-1.4-1.3.6-1.3 1.4-1.3c.8.1 1.4.6 1.4 1.3m61.9-1.2c0 .7-.6 1.3-1.4 1.3s-1.4-.6-1.4-1.3.6-1.3 1.4-1.3c.8 0 1.4.6 1.4 1.3m50.5 40.6c0 .7-.6 1.3-1.4 1.3s-1.4-.6-1.4-1.3.6-1.3 1.4-1.3c.8.1 1.4.6 1.4 1.3m53.8 13.6c0 .7-.6 1.3-1.4 1.3s-1.4-.6-1.4-1.3.6-1.3 1.4-1.3c.8.1 1.4.6 1.4 1.3m33.2-87.9c0 .7-.6 1.3-1.4 1.3s-1.4-.6-1.4-1.3.6-1.3 1.4-1.3c.8.1 1.4.6 1.4 1.3m25.4-16.8c0 .7-.6 1.3-1.4 1.3s-1.4-.6-1.4-1.3.6-1.3 1.4-1.3c.7 0 1.4.6 1.4 1.3m22.3-6.6c0 .7-.6 1.3-1.4 1.3s-1.4-.6-1.4-1.3.6-1.3 1.4-1.3c.8 0 1.4.6 1.4 1.3m27.9 18c0 .7-.6 1.3-1.4 1.3s-1.4-.6-1.4-1.3.6-1.3 1.4-1.3c.7 0 1.4.6 1.4 1.3M812.6 91c0 .7-.6 1.3-1.4 1.3s-1.4-.6-1.4-1.3.6-1.3 1.4-1.3c.8.1 1.4.6 1.4 1.3m27.9-42.9c0 .7-.6 1.3-1.4 1.3s-1.4-.6-1.4-1.3.6-1.3 1.4-1.3c.7.1 1.4.6 1.4 1.3m19.5-16c0 .7-.6 1.3-1.4 1.3s-1.4-.6-1.4-1.3.6-1.3 1.4-1.3c.7.1 1.4.6 1.4 1.3M753.5 53c0 .7-.6 1.3-1.4 1.3s-1.4-.6-1.4-1.3.6-1.3 1.4-1.3c.7 0 1.4.6 1.4 1.3m47.9 91.9c0 .7-.6 1.3-1.4 1.3s-1.4-.6-1.4-1.3.6-1.3 1.4-1.3c.8 0 1.4.6 1.4 1.3m23.4 65.5c0 .7-.6 1.3-1.4 1.3s-1.4-.6-1.4-1.3.6-1.3 1.4-1.3c.8 0 1.4.6 1.4 1.3m1.4 32.9c0 .7-.6 1.3-1.4 1.3s-1.4-.6-1.4-1.3.6-1.3 1.4-1.3c.8 0 1.4.6 1.4 1.3m-31.7 15.9c0 .7-.6 1.3-1.4 1.3s-1.4-.6-1.4-1.3.6-1.3 1.4-1.3c.7.1 1.4.6 1.4 1.3m16.7 36.2c0 .7-.6 1.3-1.4 1.3s-1.4-.6-1.4-1.3.6-1.3 1.4-1.3c.8 0 1.4.6 1.4 1.3m48.8-11.3c0 .7-.6 1.3-1.4 1.3s-1.4-.6-1.4-1.3.6-1.3 1.4-1.3c.7.1 1.4.6 1.4 1.3m-50.2 30.8c0 .7-.6 1.3-1.4 1.3s-1.4-.6-1.4-1.3.6-1.3 1.4-1.3c.8 0 1.4.6 1.4 1.3m1.4 9.6c0 .7-.6 1.3-1.4 1.3s-1.4-.6-1.4-1.3.6-1.3 1.4-1.3c.8.1 1.4.6 1.4 1.3m16.4 0c0 .7-.6 1.3-1.4 1.3s-1.4-.6-1.4-1.3.6-1.3 1.4-1.3c.8.1 1.4.6 1.4 1.3m-4.1-304c0 .7-.6 1.3-1.4 1.3s-1.4-.6-1.4-1.3.6-1.3 1.4-1.3c.7.1 1.4.6 1.4 1.3m-58.6 179.2c0 .7-.6 1.3-1.4 1.3s-1.4-.6-1.4-1.3.6-1.3 1.4-1.3c.8.1 1.4.6 1.4 1.3m-11.4 23.2c0 .7-.6 1.3-1.4 1.3s-1.4-.6-1.4-1.3.6-1.3 1.4-1.3c.7 0 1.4.6 1.4 1.3M742 239.3c0 .7-.6 1.3-1.4 1.3s-1.4-.6-1.4-1.3.6-1.3 1.4-1.3c.7 0 1.4.6 1.4 1.3m-82.3 8.9c0 .7-.6 1.3-1.4 1.3s-1.4-.6-1.4-1.3.6-1.3 1.4-1.3c.8.1 1.4.7 1.4 1.3m-3.3-57.2c0 .7-.6 1.3-1.4 1.3s-1.4-.6-1.4-1.3.6-1.3 1.4-1.3c.8 0 1.4.6 1.4 1.3m-50.1 26.7c0 .7-.6 1.3-1.4 1.3s-1.4-.6-1.4-1.3.6-1.3 1.4-1.3c.7 0 1.4.6 1.4 1.3m4.1 26.4c0 .7-.6 1.3-1.4 1.3s-1.4-.6-1.4-1.3c0-.7.6-1.3 1.4-1.3.8 0 1.4.6 1.4 1.3M350.2 129c0 .7-.6 1.3-1.4 1.3s-1.4-.6-1.4-1.3.6-1.3 1.4-1.3c.8 0 1.4.6 1.4 1.3m-32.1 5.6c0 .7-.6 1.3-1.4 1.3s-1.4-.6-1.4-1.3.6-1.3 1.4-1.3c.8 0 1.4.6 1.4 1.3m-16.3-24.9c0 .7-.6 1.3-1.4 1.3-.8 0-1.4-.6-1.4-1.3s.6-1.3 1.4-1.3c.7 0 1.4.6 1.4 1.3m-70.3-16.4c0 .7-.6 1.3-1.4 1.3-.8 0-1.4-.6-1.4-1.3s.6-1.3 1.4-1.3c.8.1 1.4.6 1.4 1.3m-18.2 59.4c0 .7-.6 1.3-1.4 1.3-.8 0-1.4-.6-1.4-1.3s.6-1.3 1.4-1.3c.8 0 1.4.6 1.4 1.3M65.8 322.2c0 .7-.6 1.3-1.4 1.3-.8 0-1.4-.6-1.4-1.3s.6-1.3 1.4-1.3c.8 0 1.4.6 1.4 1.3M157 270c0 .7-.6 1.3-1.4 1.3-.8 0-1.4-.6-1.4-1.3s.6-1.3 1.4-1.3c.7 0 1.4.6 1.4 1.3m392.1 187.4c0 .7-.6 1.3-1.4 1.3s-1.4-.6-1.4-1.3.6-1.3 1.4-1.3c.8 0 1.4.6 1.4 1.3m59.6 14.2c0 .7-.6 1.3-1.4 1.3s-1.4-.6-1.4-1.3.6-1.3 1.4-1.3c.7.1 1.4.6 1.4 1.3m107.2-91.1c0 .7-.6 1.3-1.4 1.3s-1.4-.6-1.4-1.3.6-1.3 1.4-1.3c.8.1 1.4.6 1.4 1.3m-26.7 18c0 .7-.6 1.3-1.4 1.3s-1.4-.6-1.4-1.3.6-1.3 1.4-1.3c.7.1 1.4.6 1.4 1.3m1.3 17c0 .7-.6 1.3-1.4 1.3s-1.4-.6-1.4-1.3.6-1.3 1.4-1.3c.8.1 1.4.6 1.4 1.3m-65.3-9.1c0 .7-.6 1.3-1.4 1.3s-1.4-.6-1.4-1.3.6-1.3 1.4-1.3c.8 0 1.4.6 1.4 1.3m102.6 91c0 .7-.6 1.3-1.4 1.3s-1.4-.6-1.4-1.3.6-1.3 1.4-1.3c.8 0 1.4.6 1.4 1.3m-59.6 27c0 .7-.6 1.3-1.4 1.3s-1.4-.6-1.4-1.3.6-1.3 1.4-1.3c.7 0 1.4.6 1.4 1.3m52.9 0c0 .7-.6 1.3-1.4 1.3s-1.4-.6-1.4-1.3.6-1.3 1.4-1.3c.8 0 1.4.6 1.4 1.3m72-102.3c0 .7-.6 1.3-1.4 1.3s-1.4-.6-1.4-1.3.6-1.3 1.4-1.3c.7.1 1.4.6 1.4 1.3m18.1 83c0 .7-.6 1.3-1.4 1.3s-1.4-.6-1.4-1.3.6-1.3 1.4-1.3c.8.1 1.4.6 1.4 1.3M819 552c0 .7-.6 1.3-1.4 1.3s-1.4-.6-1.4-1.3.6-1.3 1.4-1.3c.8.1 1.4.6 1.4 1.3M113.4 185c0 1.7-1.5 3-3.4 3s-3.4-1.3-3.4-3 1.5-3 3.4-3 3.4 1.3 3.4 3M87 163c0 1.1-1 2-2.2 2s-2.2-.9-2.2-2 1-2 2.2-2 2.2.9 2.2 2m189.6 31.7c0 1.1-1 2-2.2 2-1.2 0-2.2-.9-2.2-2s1-2 2.2-2 2.2.9 2.2 2m-85.1 37.5c0 1.1-1 2-2.2 2s-2.2-.9-2.2-2 1-2 2.2-2 2.2.9 2.2 2m-39.1-39.5c0 1.1-1 2-2.2 2s-2.2-.9-2.2-2 1-2 2.2-2 2.2.9 2.2 2m-53.9 72c0 1.1-1 2-2.2 2s-2.2-.9-2.2-2 1-2 2.2-2 2.2.9 2.2 2M40.2 157.3c0 1.1-1 2-2.2 2s-2.2-.9-2.2-2 1-2 2.2-2 2.2.9 2.2 2m-16.4 7c0 1.1-1 2-2.2 2-1.2 0-2.2-.9-2.2-2s1-2 2.2-2 2.2.9 2.2 2m98.9-107.6c0 1.1-1 2-2.2 2s-2.2-.9-2.2-2 1-2 2.2-2 2.2.9 2.2 2M78.7 185c0 1.3-1.2 2.3-2.6 2.3-1.4 0-2.6-1.1-2.6-2.3s1.2-2.3 2.6-2.3c1.5 0 2.6 1 2.6 2.3M60.6 88.7c0 1.1-1 2-2.2 2s-2.2-.9-2.2-2 1-2 2.2-2 2.2.9 2.2 2m2.2-41.8c0 1.5-1.3 2.7-3 2.7-1.6 0-3-1.2-3-2.7 0-1.5 1.3-2.7 3-2.7s3 1.2 3 2.7m226 62.8c0 1.5-1.3 2.7-3 2.7-1.6 0-3-1.2-3-2.7 0-1.5 1.3-2.7 3-2.7 1.6 0 3 1.2 3 2.7m69.9-41.2c0 1.5-1.3 2.7-3 2.7-1.6 0-3-1.2-3-2.7 0-1.5 1.3-2.7 3-2.7 1.6 0 3 1.2 3 2.7M410.1 169c0 1.5-1.3 2.7-3 2.7-1.6 0-3-1.2-3-2.7 0-1.5 1.3-2.7 3-2.7 1.6 0 3 1.2 3 2.7m36.3-80.3c0 1.5-1.3 2.7-3 2.7-1.6 0-3-1.2-3-2.7 0-1.5 1.3-2.7 3-2.7s3 1.2 3 2.7m37.2 0c0 1.5-1.3 2.7-3 2.7-1.6 0-3-1.2-3-2.7 0-1.5 1.3-2.7 3-2.7 1.6 0 3 1.2 3 2.7m-119-42.1c0 1.5-1.3 2.7-3 2.7-1.6 0-3-1.2-3-2.7 0-1.5 1.3-2.7 3-2.7s3 1.2 3 2.7m181.8 52c0 1.5-1.3 2.7-3 2.7-1.6 0-3-1.2-3-2.7 0-1.5 1.3-2.7 3-2.7 1.7.1 3 1.3 3 2.7m-18-84.2c0 1.5-1.3 2.7-3 2.7-1.6 0-3-1.2-3-2.7 0-1.5 1.3-2.7 3-2.7 1.6 0 3 1.2 3 2.7M304.8 2.7c0 1.5-1.3 2.7-3 2.7-1.6 0-3-1.2-3-2.7 0-1.5 1.3-2.7 3-2.7 1.6 0 3 1.2 3 2.7m348.5 80.2c0 1.5-1.3 2.7-3 2.7-1.6 0-3-1.2-3-2.7 0-1.5 1.3-2.7 3-2.7s3 1.2 3 2.7m87.2 34.6c0 1.5-1.3 2.7-3 2.7-1.6 0-3-1.2-3-2.7 0-1.5 1.3-2.7 3-2.7s3 1.2 3 2.7m48.4-95.7c0 1.5-1.3 2.7-3 2.7-1.6 0-3-1.2-3-2.7 0-1.5 1.3-2.7 3-2.7s3 1.2 3 2.7M10.4 103c0 1.5-1.3 2.7-3 2.7s-3-1.2-3-2.7c0-1.5 1.3-2.7 3-2.7s3 1.2 3 2.7m19.7 22c0 1.1-1 2-2.2 2s-2.2-.9-2.2-2 1-2 2.2-2 2.2.9 2.2 2m0 20c0 1.1-1 2-2.2 2s-2.2-.9-2.2-2 1-2 2.2-2 2.2.9 2.2 2M604.9 32.1c0 1.1-1 2-2.2 2s-2.2-.9-2.2-2 1-2 2.2-2 2.2.9 2.2 2"/></g></svg>